<?xml version="1.0" encoding="UTF-8" standalone="no"?>
<!DOCTYPE svg PUBLIC "-//W3C//DTD SVG 1.1//EN" "http://www.w3.org/Graphics/SVG/1.1/DTD/svg11.dtd">
<svg width="100%" height="100%" viewBox="0 0 24 24" version="1.1" xmlns="http://www.w3.org/2000/svg" xmlns:xlink="http://www.w3.org/1999/xlink" xml:space="preserve" xmlns:serif="http://www.serif.com/" style="fill-rule:evenodd;clip-rule:evenodd;stroke-linejoin:round;stroke-miterlimit:2;">
    <g id="OneDrive">
        <path d="M14.5,15L19.45,10.26C18.602,6.953 15.599,4.623 12.185,4.623C9.664,4.623 7.306,5.894 5.92,8C6,8 14.5,15 14.5,15Z" style="fill:rgb(3,100,184);fill-rule:nonzero;"/>
      <path d="M9.15,8.89C8.203,8.307 7.112,7.999 6,8L5.92,8C2.66,8.045 0.003,10.739 0.003,13.999C0.003,15.226 0.379,16.424 1.08,17.43L8.5,16.5L14.19,11.91L9.15,8.89Z" style="fill:rgb(0,120,212);fill-rule:nonzero;"/>
      <path d="M19.45,10.26L19.13,10.26C18.463,10.258 17.802,10.394 17.19,10.66L14.19,11.92L17.5,16L23.42,17.44C23.801,16.73 24.001,15.937 24.001,15.131C24.001,12.566 21.98,10.417 19.42,10.26L19.45,10.26Z" style="fill:rgb(20,144,223);fill-rule:nonzero;"/>
      <path d="M1.08,17.43C2.2,19.038 4.04,19.999 6,20L19.13,20C20.918,19.997 22.568,19.012 23.42,17.44L14.19,11.91L1.08,17.43Z" style="fill:rgb(40,168,234);fill-rule:nonzero;"/>
    </g>
</svg>
